<mxfile host="app.diagrams.net" agent="Mozilla/5.0 (Windows NT 10.0; Win64; x64) AppleWebKit/537.36 (KHTML, like Gecko) Chrome/129.0.0.0 Safari/537.36 Edg/129.0.0.0" version="24.8.2">
  <diagram name="第 1 页" id="pAt2N-F9b18IkYqNfxiU">
    <mxGraphModel dx="1042" dy="565" grid="1" gridSize="10" guides="1" tooltips="1" connect="1" arrows="1" fold="1" page="1" pageScale="1" pageWidth="827" pageHeight="1169" math="0" shadow="0">
      <root>
        <mxCell id="0" />
        <mxCell id="1" parent="0" />
        <mxCell id="Ic0-U0lvKOTLZuwe_EUO-6" style="edgeStyle=orthogonalEdgeStyle;rounded=0;orthogonalLoop=1;jettySize=auto;html=1;exitX=0.5;exitY=1;exitDx=0;exitDy=0;" edge="1" parent="1" source="Ic0-U0lvKOTLZuwe_EUO-1" target="Ic0-U0lvKOTLZuwe_EUO-2">
          <mxGeometry relative="1" as="geometry" />
        </mxCell>
        <mxCell id="Ic0-U0lvKOTLZuwe_EUO-10" style="edgeStyle=orthogonalEdgeStyle;rounded=0;orthogonalLoop=1;jettySize=auto;html=1;entryX=1;entryY=0.5;entryDx=0;entryDy=0;exitX=1;exitY=0.5;exitDx=0;exitDy=0;" edge="1" parent="1" source="Ic0-U0lvKOTLZuwe_EUO-1" target="Ic0-U0lvKOTLZuwe_EUO-5">
          <mxGeometry relative="1" as="geometry">
            <mxPoint x="470" y="290" as="sourcePoint" />
            <mxPoint x="530" y="760" as="targetPoint" />
            <Array as="points">
              <mxPoint x="550" y="290" />
              <mxPoint x="550" y="760" />
            </Array>
          </mxGeometry>
        </mxCell>
        <mxCell id="Ic0-U0lvKOTLZuwe_EUO-1" value="是否导出视频" style="rhombus;whiteSpace=wrap;html=1;" vertex="1" parent="1">
          <mxGeometry x="370" y="250" width="80" height="80" as="geometry" />
        </mxCell>
        <mxCell id="Ic0-U0lvKOTLZuwe_EUO-7" style="edgeStyle=orthogonalEdgeStyle;rounded=0;orthogonalLoop=1;jettySize=auto;html=1;exitX=0.5;exitY=1;exitDx=0;exitDy=0;entryX=0.5;entryY=0;entryDx=0;entryDy=0;" edge="1" parent="1" source="Ic0-U0lvKOTLZuwe_EUO-2" target="Ic0-U0lvKOTLZuwe_EUO-3">
          <mxGeometry relative="1" as="geometry" />
        </mxCell>
        <mxCell id="Ic0-U0lvKOTLZuwe_EUO-2" value="设置视频倍速" style="rounded=0;whiteSpace=wrap;html=1;" vertex="1" parent="1">
          <mxGeometry x="350" y="380" width="120" height="60" as="geometry" />
        </mxCell>
        <mxCell id="Ic0-U0lvKOTLZuwe_EUO-8" style="edgeStyle=orthogonalEdgeStyle;rounded=0;orthogonalLoop=1;jettySize=auto;html=1;exitX=0.5;exitY=1;exitDx=0;exitDy=0;" edge="1" parent="1" source="Ic0-U0lvKOTLZuwe_EUO-3" target="Ic0-U0lvKOTLZuwe_EUO-4">
          <mxGeometry relative="1" as="geometry" />
        </mxCell>
        <mxCell id="Ic0-U0lvKOTLZuwe_EUO-3" value="设置视频名称/保存路径" style="rounded=0;whiteSpace=wrap;html=1;" vertex="1" parent="1">
          <mxGeometry x="350" y="490" width="120" height="60" as="geometry" />
        </mxCell>
        <mxCell id="Ic0-U0lvKOTLZuwe_EUO-9" style="edgeStyle=orthogonalEdgeStyle;rounded=0;orthogonalLoop=1;jettySize=auto;html=1;exitX=0.5;exitY=1;exitDx=0;exitDy=0;" edge="1" parent="1" source="Ic0-U0lvKOTLZuwe_EUO-4" target="Ic0-U0lvKOTLZuwe_EUO-5">
          <mxGeometry relative="1" as="geometry" />
        </mxCell>
        <mxCell id="Ic0-U0lvKOTLZuwe_EUO-4" value="生成视频，并导出至指定位置" style="rounded=0;whiteSpace=wrap;html=1;" vertex="1" parent="1">
          <mxGeometry x="350" y="610" width="120" height="60" as="geometry" />
        </mxCell>
        <mxCell id="Ic0-U0lvKOTLZuwe_EUO-5" value="程序结束" style="rounded=0;whiteSpace=wrap;html=1;" vertex="1" parent="1">
          <mxGeometry x="350" y="730" width="120" height="60" as="geometry" />
        </mxCell>
        <mxCell id="Ic0-U0lvKOTLZuwe_EUO-11" value="否" style="text;strokeColor=none;align=center;fillColor=none;html=1;verticalAlign=middle;whiteSpace=wrap;rounded=0;" vertex="1" parent="1">
          <mxGeometry x="540" y="480" width="60" height="30" as="geometry" />
        </mxCell>
        <mxCell id="Ic0-U0lvKOTLZuwe_EUO-12" value="是" style="text;strokeColor=none;align=center;fillColor=none;html=1;verticalAlign=middle;whiteSpace=wrap;rounded=0;" vertex="1" parent="1">
          <mxGeometry x="390" y="340" width="60" height="30" as="geometry" />
        </mxCell>
      </root>
    </mxGraphModel>
  </diagram>
</mxfile>
